# xmcd
#
# Track frame offsets:
#	150
#	14669
#	24926
#	37773
#	54342
#	74435
#	93685
#	110746
#	124792
#	138704
#	156624
#	171813
#	190344
#	209999
#	223129
#	238917
#	253856
#	268788
#	284385
#	297505
#
# Disc length: 4222 seconds
#
# Revision: 1
# Processed by: cddbd v1.4PL0 Copyright (c) Steve Scherf et al.
# Submitted via: audiograbber 1.80
#
DISCID=4f107c14
DTITLE=Various Artist - Country Trakks
DYEAR=1900
DGENRE=
TTITLE0=Olivia Newton-John - If You Love Me ( Let Me Know )
TTITLE1=Jimmie Rodgers - Kisses Sweeter Than Wine
TTITLE2=Hank Snow - I'm Moving On
TTITLE3=Ronnie Milsap - Any  Day Now
TTITLE4=Wynonna - She Is His Only Need
TTITLE5=Hal Ketchum - Mama Knows The Highway
TTITLE6=Shenandoah - I Got You
TTITLE7=Ricky Van Shelton - I'll Leave This World Loving You
TTITLE8=Mark Chesnutt - Brother Jukebox
TTITLE9=Vince Gill - I Still Believe In You
TTITLE10=Mary Chapin Carpenter - Passionate Kisses
TTITLE11=Trisha Yearwood - She's In Love With The Boy
TTITLE12=Brooks and Dunn - Neon Moon
TTITLE13=Tracy Lawrence - Can't Break It To My Heart
TTITLE14=Clint Black - Nobody's Home
TTITLE15=Dwight Yoakam - Ain't That Lonely Yet
TTITLE16=Sawyer Brown - Thank God For You
TTITLE17=Doug Stone - In A Different Light
TTITLE18=Hank Williams Jr. - I'm For Love
TTITLE19=Reba McEntire - For My Broken Heart
EXTD=
EXTT0=
EXTT1=
EXTT2=
EXTT3=
EXTT4=
EXTT5=
EXTT6=
EXTT7=
EXTT8=
EXTT9=
EXTT10=
EXTT11=
EXTT12=
EXTT13=
EXTT14=
EXTT15=
EXTT16=
EXTT17=
EXTT18=
EXTT19=
PLAYORDER=
